<?xml version="1.0" standalone="no"?><!-- Created with ZXing.Net (http://zxingnet.codeplex.com/) --><!DOCTYPE svg PUBLIC "-//W3C//DTD SVG 1.1//EN" "http://www.w3.org/Graphics/SVG/1.1/DTD/svg11.dtd"><svg xmlns="http://www.w3.org/2000/svg" version="1.2" baseProfile="tiny" shape-rendering="crispEdges" viewBox="0 0 1024 1024" viewport-fill="rgb(255,255,255)" viewport-fill-opacity="1" fill="rgb(0,0,0)" fill-opacity="1" style="background-color:rgb(255,255,255);background-color:rgba(255, 255, 255, 1);"><rect x="62" y="62" width="31" height="217"/><rect x="62" y="310" width="31" height="62"/><rect x="62" y="403" width="31" height="31"/><rect x="62" y="465" width="62" height="31"/><rect x="62" y="527" width="62" height="31"/><rect x="62" y="589" width="31" height="124"/><rect x="62" y="744" width="31" height="217"/><rect x="93" y="62" width="186" height="31"/><rect x="93" y="248" width="186" height="31"/><rect x="93" y="341" width="31" height="31"/><rect x="93" y="496" width="31" height="62"/><rect x="93" y="589" width="62" height="31"/><rect x="93" y="744" width="186" height="31"/><rect x="93" y="930" width="186" height="31"/><rect x="124" y="124" width="93" height="93"/><rect x="124" y="310" width="155" height="31"/><rect x="124" y="434" width="31" height="31"/><rect x="124" y="496" width="93" height="31"/><rect x="124" y="558" width="31" height="93"/><rect x="124" y="806" width="93" height="93"/><rect x="155" y="372" width="217" height="31"/><rect x="155" y="527" width="31" height="31"/><rect x="155" y="651" width="31" height="62"/><rect x="186" y="434" width="31" height="93"/><rect x="186" y="589" width="31" height="31"/><rect x="186" y="682" width="31" height="31"/><rect x="217" y="403" width="31" height="62"/><rect x="217" y="527" width="31" height="31"/><rect x="217" y="620" width="31" height="62"/><rect x="248" y="93" width="31" height="186"/><rect x="248" y="434" width="31" height="31"/><rect x="248" y="496" width="62" height="31"/><rect x="248" y="558" width="62" height="31"/><rect x="248" y="620" width="31" height="31"/><rect x="248" y="682" width="31" height="31"/><rect x="248" y="775" width="31" height="186"/><rect x="279" y="341" width="31" height="93"/><rect x="279" y="465" width="31" height="62"/><rect x="279" y="589" width="93" height="31"/><rect x="310" y="124" width="31" height="186"/><rect x="310" y="341" width="62" height="62"/><rect x="310" y="465" width="31" height="31"/><rect x="310" y="620" width="31" height="62"/><rect x="310" y="713" width="31" height="31"/><rect x="310" y="775" width="31" height="124"/><rect x="310" y="930" width="93" height="31"/><rect x="341" y="62" width="31" height="62"/><rect x="341" y="279" width="31" height="124"/><rect x="341" y="496" width="31" height="62"/><rect x="341" y="620" width="62" height="31"/><rect x="341" y="682" width="31" height="31"/><rect x="341" y="744" width="31" height="31"/><rect x="341" y="868" width="31" height="93"/><rect x="372" y="124" width="62" height="31"/><rect x="372" y="186" width="62" height="31"/><rect x="372" y="248" width="31" height="93"/><rect x="372" y="434" width="31" height="31"/><rect x="372" y="527" width="31" height="31"/><rect x="372" y="713" width="93" height="31"/><rect x="372" y="775" width="93" height="31"/><rect x="372" y="837" width="93" height="31"/><rect x="403" y="62" width="31" height="31"/><rect x="403" y="155" width="31" height="62"/><rect x="403" y="279" width="31" height="62"/><rect x="403" y="465" width="31" height="62"/><rect x="403" y="589" width="62" height="31"/><rect x="403" y="682" width="31" height="62"/><rect x="403" y="806" width="31" height="93"/><rect x="434" y="155" width="31" height="31"/><rect x="434" y="248" width="31" height="31"/><rect x="434" y="341" width="31" height="62"/><rect x="434" y="465" width="62" height="31"/><rect x="434" y="558" width="31" height="62"/><rect x="434" y="744" width="31" height="124"/><rect x="465" y="62" width="31" height="62"/><rect x="465" y="186" width="31" height="31"/><rect x="465" y="310" width="31" height="62"/><rect x="465" y="434" width="31" height="93"/><rect x="465" y="558" width="31" height="31"/><rect x="465" y="682" width="93" height="31"/><rect x="465" y="744" width="31" height="31"/><rect x="465" y="868" width="31" height="31"/><rect x="465" y="930" width="31" height="31"/><rect x="496" y="93" width="62" height="93"/><rect x="496" y="248" width="31" height="31"/><rect x="496" y="372" width="31" height="93"/><rect x="496" y="496" width="124" height="31"/><rect x="496" y="589" width="31" height="31"/><rect x="496" y="775" width="62" height="31"/><rect x="527" y="186" width="62" height="62"/><rect x="527" y="310" width="31" height="31"/><rect x="527" y="372" width="93" height="31"/><rect x="527" y="620" width="62" height="31"/><rect x="527" y="744" width="31" height="93"/><rect x="527" y="868" width="31" height="31"/><rect x="527" y="930" width="31" height="31"/><rect x="558" y="62" width="31" height="93"/><rect x="558" y="248" width="31" height="31"/><rect x="558" y="341" width="31" height="93"/><rect x="558" y="589" width="31" height="62"/><rect x="558" y="713" width="31" height="62"/><rect x="558" y="837" width="31" height="31"/><rect x="589" y="155" width="31" height="31"/><rect x="589" y="310" width="31" height="93"/><rect x="589" y="434" width="31" height="31"/><rect x="589" y="558" width="31" height="31"/><rect x="589" y="682" width="31" height="31"/><rect x="589" y="806" width="31" height="31"/><rect x="589" y="930" width="31" height="31"/><rect x="620" y="62" width="93" height="31"/><rect x="620" y="124" width="93" height="31"/><rect x="620" y="186" width="62" height="31"/><rect x="620" y="248" width="31" height="31"/><rect x="620" y="310" width="31" height="62"/><rect x="620" y="465" width="217" height="31"/><rect x="620" y="527" width="31" height="31"/><rect x="620" y="589" width="217" height="31"/><rect x="620" y="713" width="93" height="31"/><rect x="620" y="837" width="62" height="31"/><rect x="620" y="899" width="31" height="31"/><rect x="651" y="155" width="31" height="62"/><rect x="651" y="279" width="62" height="31"/><rect x="651" y="341" width="186" height="31"/><rect x="651" y="651" width="31" height="31"/><rect x="651" y="744" width="62" height="62"/><rect x="651" y="868" width="31" height="31"/><rect x="651" y="930" width="31" height="31"/><rect x="682" y="217" width="31" height="93"/><rect x="682" y="372" width="124" height="31"/><rect x="682" y="527" width="31" height="93"/><rect x="682" y="682" width="31" height="155"/><rect x="682" y="899" width="31" height="31"/><rect x="713" y="496" width="31" height="31"/><rect x="713" y="620" width="62" height="31"/><rect x="713" y="682" width="124" height="31"/><rect x="713" y="806" width="124" height="31"/><rect x="713" y="868" width="217" height="31"/><rect x="713" y="930" width="31" height="31"/><rect x="744" y="62" width="31" height="217"/><rect x="744" y="310" width="62" height="93"/><rect x="744" y="527" width="93" height="31"/><rect x="744" y="651" width="62" height="62"/><rect x="744" y="744" width="31" height="31"/><rect x="744" y="899" width="124" height="31"/><rect x="775" y="62" width="186" height="31"/><rect x="775" y="248" width="186" height="31"/><rect x="775" y="403" width="31" height="93"/><rect x="775" y="558" width="31" height="62"/><rect x="775" y="930" width="62" height="31"/><rect x="806" y="124" width="93" height="93"/><rect x="806" y="310" width="31" height="62"/><rect x="806" y="403" width="62" height="31"/><rect x="806" y="496" width="31" height="62"/><rect x="806" y="713" width="31" height="124"/><rect x="837" y="310" width="62" height="31"/><rect x="837" y="434" width="62" height="31"/><rect x="837" y="496" width="62" height="31"/><rect x="837" y="558" width="62" height="31"/><rect x="837" y="713" width="62" height="62"/><rect x="837" y="837" width="31" height="93"/><rect x="868" y="589" width="31" height="62"/><rect x="868" y="682" width="31" height="93"/><rect x="868" y="806" width="62" height="93"/><rect x="868" y="930" width="31" height="31"/><rect x="899" y="403" width="31" height="31"/><rect x="899" y="527" width="31" height="31"/><rect x="899" y="651" width="31" height="93"/><rect x="899" y="775" width="31" height="155"/><rect x="930" y="93" width="31" height="186"/><rect x="930" y="341" width="31" height="31"/><rect x="930" y="465" width="31" height="31"/><rect x="930" y="589" width="31" height="31"/><rect x="930" y="682" width="31" height="62"/><rect x="930" y="775" width="31" height="93"/></svg>